<svg width="1024" height="1024" viewBox="0 0 1024 1024" fill="none" xmlns="http://www.w3.org/2000/svg">
<rect width="1024" height="1024" fill="#C4F135"/>
<path d="M335.134 833.818C337.477 836.312 340.433 838.143 343.705 839.126C346.977 840.109 350.448 840.21 353.771 839.418C357.094 838.627 360.15 836.971 362.633 834.617C365.116 832.263 366.937 829.294 367.914 826.009L394.028 730.634L512.926 279.97C513.485 277.505 514.862 275.304 516.831 273.728C518.799 272.152 521.242 271.293 523.76 271.293C526.278 271.293 528.722 272.152 530.69 273.728C532.658 275.304 534.035 277.505 534.594 279.97L547.373 314.55C551.864 326.826 559.272 337.815 568.955 346.563C578.637 355.311 590.301 361.554 602.933 364.748L714.053 395.424C724.837 398.394 734.477 404.561 741.713 413.119C748.949 421.676 753.445 432.227 754.612 443.391C755.428 456.755 753.201 470.13 748.099 482.5C742.996 494.87 735.153 505.911 725.165 514.783L697.385 538.767C675.345 558.12 659.632 583.695 652.297 612.153C644.962 640.611 646.347 670.629 656.271 698.284L701.83 826.567C702.908 829.473 704.626 832.098 706.854 834.247C709.082 836.395 711.764 838.012 714.7 838.976C717.636 839.941 720.751 840.229 723.813 839.819C726.876 839.408 729.807 838.31 732.388 836.607C790.008 794.018 834.563 736.049 860.985 669.295C887.407 602.541 894.634 529.682 881.844 459.008C868.408 383.532 832.663 313.86 779.254 259.051C725.846 204.242 657.247 166.833 582.376 151.687C530.269 141.056 476.527 141.456 424.582 152.86C372.638 164.265 323.635 186.422 280.706 217.917C237.776 249.412 201.864 289.552 175.265 335.771C148.666 381.99 131.965 433.272 126.229 486.338C125.67 490.769 126.138 495.269 127.597 499.489C129.055 503.708 131.465 507.533 134.637 510.664C137.81 513.794 141.66 516.148 145.887 517.539C150.115 518.931 154.606 519.324 159.009 518.688C173.982 517.287 189.08 519.047 203.335 523.853C217.589 528.66 230.684 536.408 241.777 546.599C252.87 556.79 261.717 569.198 267.748 583.026C273.779 596.854 276.861 611.796 276.796 626.892V682.667C277.458 738.463 298.175 792.14 335.134 833.818V833.818Z" fill="#25392B"/>
<path d="M597.377 469.174C616.402 469.174 631.825 453.692 631.825 434.593C631.825 415.495 616.402 400.013 597.377 400.013C578.353 400.013 562.93 415.495 562.93 434.593C562.93 453.692 578.353 469.174 597.377 469.174Z" fill="#25392B"/>
</svg>
